<svg aria-hidden="true" style="width:0;height:0;position:absolute;overflow:hidden" xmlns="http://www.w3.org/2000/svg"><defs><symbol id="icon-chair" viewBox="0 0 32 32"><path d="M23.719 27.387a2.083 2.083 0 0 0-1.867 2.882 2.074 2.074 0 0 0 1.925 1.287 2.072 2.072 0 0 0 1.473-.611 2.084 2.084 0 0 0-1.532-3.559zm.03 1.114a.975.975 0 0 1 .401 1.873.973.973 0 1 1-.402-1.873zM8.161 27.39a2.084 2.084 0 0 0-2.023 2.083 2.086 2.086 0 0 0 2.083 2.08 2.082 2.082 0 1 0-.061-4.163zm.035 1.108a.976.976 0 0 1 .925 1.347.973.973 0 0 1-1.585.316.979.979 0 0 1-.285-.688.97.97 0 0 1 .946-.975zM25.119 16.002a6.455 6.455 0 0 0-.869-.712l.247-2.346 1.105.116-.326 3.104a4.026 4.026 0 0 0-.157-.163zM6.724 16.164l-.326-3.104 1.105-.116.247 2.346c-.31.211-.6.45-.869.712a4.026 4.026 0 0 0-.157.163zM11.473 15.283a5.317 5.317 0 0 0-3.816 1.514 2.781 2.781 0 0 0 .392 4.291c.458.308.997.473 1.549.473h4.18v1.988a8.601 8.601 0 0 0-4.481 2.915c.357.128.688.318.979.562a7.493 7.493 0 0 1 11.45 0c.29-.244.622-.434.979-.562a8.611 8.611 0 0 0-4.481-2.915v-1.988h4.18a2.776 2.776 0 0 0 2.717-3.343 2.777 2.777 0 0 0-.777-1.421c-.697-.681-1.567-1.158-2.516-1.377s-1.94-.175-2.866.13a9.437 9.437 0 0 1-5.92 0 5.317 5.317 0 0 0-1.567-.267zm-.02 1.111c.421.008.839.08 1.239.212 2.148.709 4.467.709 6.615 0a4.204 4.204 0 0 1 4.26.986 1.662 1.662 0 0 1 .377 1.821 1.67 1.67 0 0 1-1.543 1.037H9.597a1.664 1.664 0 0 1-1.542-1.038 1.67 1.67 0 0 1 .378-1.82 4.214 4.214 0 0 1 3.019-1.198zm3.436 5.167h2.222v1.766a8.608 8.608 0 0 0-2.222 0v-1.766zM22.124 1.707a4.446 4.446 0 0 1 2.495 5.402l-2.264 7.299c-.36-.1-.728-.169-1.1-.206l2.303-7.422a3.337 3.337 0 0 0-1.871-4.052 14.44 14.44 0 0 0-11.374 0A3.334 3.334 0 0 0 8.442 6.78l2.303 7.422c-.372.037-.74.105-1.099.206L7.382 7.109a4.44 4.44 0 0 1 2.495-5.402 15.553 15.553 0 0 1 12.248 0z"/></symbol><symbol id="icon-clock" viewBox="0 0 32 32"><path d="M16 10.4a.8.8 0 0 0-.8.8v8a.8.8 0 1 0 1.6 0v-8a.8.8 0 0 0-.8-.8z"/><path d="m25.585 10.746 2.181-2.179a.8.8 0 0 0-1.131-1.131l-2.181 2.179A12.744 12.744 0 0 0 16.8 6.441v-4.84h4a.8.8 0 1 0 0-1.6h-9.6a.8.8 0 1 0 0 1.6h4v4.84c-6.685.416-12 5.971-12 12.76 0 7.058 5.742 12.8 12.8 12.8s12.8-5.742 12.8-12.8c0-3.242-1.221-6.197-3.214-8.454zM16 30.4c-6.176 0-11.2-5.026-11.2-11.2S9.824 8 16 8c6.176 0 11.2 5.026 11.2 11.2S22.176 30.4 16 30.4z"/></symbol><symbol id="icon-info" viewBox="0 0 32 32"><path d="M10.263 32v-2.487l3.217-.553V13.703l-3.217-.553v-2.507h7.105v18.316l3.217.553v2.487H10.263zM13.48 5.178V1.211h3.888v3.967H13.48z"/></symbol><symbol id="icon-letter" viewBox="0 0 32 32"><path d="M3.151 1.031A2.648 2.648 0 0 0 .517 3.665v25.702a2.646 2.646 0 0 0 2.634 2.631H28.85a2.645 2.645 0 0 0 2.634-2.631V3.665a2.648 2.648 0 0 0-2.634-2.634H3.151zm0 1.724H28.85c.52 0 .914.39.914.911v25.702c0 .52-.394.911-.914.911H3.151a.892.892 0 0 1-.914-.911V3.666c0-.52.394-.911.914-.911z"/><path d="M15.14 6.192a.86.86 0 0 0-.86.86v5.161a.86.86 0 0 0 .86.86h10.323a.86.86 0 0 0 .86-.86V7.052a.86.86 0 0 0-.86-.86H15.14zm.86 1.72h8.602v3.441H16V7.912zM15.14 14.794a.86.86 0 0 0-.86.86v5.161a.86.86 0 0 0 .86.86h10.323a.86.86 0 0 0 .86-.86v-5.161a.86.86 0 0 0-.86-.86H15.14zm.86 1.721h8.602v3.441H16v-3.441zM5.677 7.912v1.72h5.161v-1.72H5.677zM5.677 16.515v1.72h5.161v-1.72H5.677zM5.677 25.117v1.72h20.47v-1.72H5.677z"/></symbol><symbol id="icon-little-phone" viewBox="0 0 32 32"><path d="M23.312 31.987a9.75 9.75 0 0 1-6.94-2.875L4.228 16.968c-1.854-1.853-2.875-4.318-2.875-6.94s1.021-5.086 2.875-6.94c1.168-1.167 2.31-1.735 3.494-1.735 2.078 0 3.723 1.73 5.629 3.734.422.444.861.905 1.324 1.369.079.079.772.81.772 2.144s-1.12 2.492-1.249 2.62a3.715 3.715 0 0 0-.627 4.408c.449.556 3.795 3.841 4.402 4.273a3.74 3.74 0 0 0 1.527.327c.99 0 1.921-.385 2.621-1.085.127-.127 1.287-1.249 2.62-1.249s2.064.693 2.144.772c.463.463.925.902 1.368 1.324 1.989 1.893 3.708 3.527 3.734 5.585.015 1.199-.552 2.357-1.734 3.539a9.748 9.748 0 0 1-6.94 2.874zM7.722 3.375c-.62 0-1.296.374-2.064 1.143-1.472 1.472-2.282 3.429-2.282 5.511s.81 4.039 2.282 5.511l12.144 12.145c1.472 1.472 3.429 2.282 5.511 2.282s4.039-.81 5.511-2.282c.776-.776 1.15-1.459 1.142-2.084-.015-1.207-1.447-2.568-3.105-4.146-.455-.433-.93-.884-1.405-1.36l.001.001c-.004 0-.245-.182-.715-.182-.356 0-.923.393-1.193.66a5.687 5.687 0 0 1-4.047 1.675 5.77 5.77 0 0 1-2.427-.538c-.757-.354-4.968-4.574-5.235-5.041a5.738 5.738 0 0 1 .93-6.879c.263-.267.657-.834.657-1.191 0-.491-.199-.732-.207-.742-.449-.447-.9-.922-1.333-1.376-1.585-1.665-2.954-3.104-4.165-3.104z"/></symbol><symbol id="icon-phone" viewBox="0 0 32 32"><path d="m29.269 21.717-.043-.043-3.2-2.005c-.896-.64-1.877-.811-2.901-.512-1.195.341-2.219 1.408-2.731 2.773-.299.853-.811 1.152-1.707 1.024-3.285-.427-8.875-6.315-9.216-9.685-.085-.939.213-1.451 1.067-1.707 1.195-.469 2.048-1.323 2.389-2.389.299-1.067.085-2.176-.64-3.2l-2.005-3.2-.043-.043C9.258 1.407 8.234.725 6.996.639c-1.536-.128-3.2.725-5.035 2.56-4.395 4.395-.64 14.805 5.675 21.12 4.395 4.395 10.795 7.595 15.787 7.595 2.048 0 3.84-.555 5.163-1.749.085-.043.171-.085.213-.171 1.835-1.835 2.688-3.499 2.56-5.035-.085-1.237-.768-2.304-2.091-3.243zm-1.578 6.912c-.043.043-.128.085-.171.128-3.371 3.371-12.459.597-18.731-5.675C2.56 16.853-.171 7.765 3.2 4.394c1.451-1.451 2.688-2.176 3.712-2.091.683.043 1.323.512 1.963 1.365l2.005 3.2.043.043c.427.555.555 1.195.384 1.749s-.64 1.024-1.365 1.28c-1.536.512-2.347 1.792-2.176 3.499.427 4.181 6.613 10.667 10.709 11.221.171.043.384.043.555.043 1.408 0 2.475-.768 2.987-2.133.341-.853.939-1.536 1.621-1.749.469-.128.939-.043 1.408.299l.043.043 3.2 2.005c.896.64 1.323 1.28 1.365 1.963.085.896-.597 2.091-1.963 3.499zM16.469.128c-.469 0-.853.384-.853.853s.384.853.853.853c7.595 0 13.781 6.187 13.781 13.781 0 .469.384.853.853.853s.853-.384.853-.853c0-8.576-6.955-15.488-15.488-15.488z"/><path d="M16.469 5.291c5.675 0 10.325 4.608 10.325 10.325 0 .469.384.853.853.853s.853-.384.853-.853c0-6.613-5.376-12.032-12.032-12.032-.469 0-.853.384-.853.853s.384.853.853.853z"/><path d="M16.469 8.832c3.755 0 6.784 3.029 6.784 6.741 0 .469.384.853.853.853s.853-.384.853-.853a8.486 8.486 0 0 0-8.491-8.491.856.856 0 0 0-.853.853c0 .512.384.896.853.896z"/></symbol><symbol id="icon-question" viewBox="0 0 32 32"><path d="M13.563 23.458c0-1.014.035-1.847.104-2.5s.201-1.215.396-1.688c.208-.472.521-.944.938-1.417s.979-1.028 1.688-1.667c.986-.889 1.75-1.715 2.292-2.479.556-.764.944-1.507 1.167-2.229a7.064 7.064 0 0 0 .354-2.208c0-1.472-.396-2.604-1.188-3.396-.778-.792-1.896-1.188-3.354-1.188-1.264 0-2.34.347-3.229 1.042-.875.681-1.313 1.688-1.313 3.021H7.501l-.063-.125c-.028-1.486.319-2.785 1.042-3.896.736-1.111 1.75-1.972 3.042-2.583s2.771-.917 4.438-.917c2.736 0 4.861.701 6.375 2.104 1.514 1.389 2.271 3.333 2.271 5.833 0 1.194-.201 2.285-.604 3.271-.389.972-.979 1.951-1.771 2.938-.792.972-1.785 2.063-2.979 3.271-.486.5-.84.958-1.063 1.375a3.94 3.94 0 0 0-.438 1.396c-.056.514-.083 1.195-.083 2.042h-4.104zM13.521 32v-4.333h4.271V32h-4.271z"/></symbol><symbol id="icon-star" viewBox="0 0 32 32"><path d="m20.448 17.856 3.264-2.816c.352-.32.48-.8.352-1.248-.16-.448-.544-.768-1.024-.8l-4.256-.352-1.664-3.968c-.192-.448-.608-.704-1.088-.704s-.896.288-1.088.704L13.28 12.64l-4.256.352c-.48.032-.864.352-1.024.8s0 .928.352 1.248l3.264 2.784-.992 4.16c-.096.448.064.928.448 1.216s.896.288 1.28.064L16 21.024l3.648 2.24c.192.128.384.16.608.16.256 0 .48-.064.672-.224.384-.288.544-.768.448-1.216l-.928-4.128zm-.896-.928c-.32.288-.48.736-.384 1.152l.928 3.968-3.456-2.144c-.192-.128-.384-.16-.608-.16s-.416.064-.608.16l-3.488 2.112.928-3.968a1.143 1.143 0 0 0-.384-1.152L9.376 14.24l4.064-.32c.448-.032.8-.32.992-.704L16 9.44l1.6 3.776c.16.416.544.672.992.704l4.064.32-3.104 2.688zM16.032 5.056c.352 0 .64-.288.64-.64V1.44c0-.352-.288-.64-.64-.64s-.64.288-.64.64v2.976c0 .352.288.64.64.64zM7.36 8.224c.128.128.288.192.448.192s.32-.064.448-.192c.256-.256.256-.672 0-.896l-2.08-2.08c-.256-.256-.672-.256-.896 0-.256.256-.256.672 0 .896l2.08 2.08zM4.416 15.328H1.44c-.352 0-.64.288-.64.64s.288.64.64.64h2.976c.352 0 .64-.288.64-.64s-.288-.64-.64-.64zM7.328 23.712l-2.08 2.08c-.256.256-.256.672 0 .896.128.128.288.192.448.192s.32-.064.448-.192l2.08-2.08c.256-.256.256-.672 0-.896-.256-.256-.672-.256-.896 0zM15.968 26.944a.642.642 0 0 0-.64.64v2.976c0 .352.288.64.64.64s.64-.288.64-.64v-2.976a.642.642 0 0 0-.64-.64zM24.64 23.776c-.256-.256-.672-.256-.896 0-.256.256-.256.672 0 .896l2.08 2.08c.128.128.288.192.448.192s.32-.064.448-.192c.256-.256.256-.672 0-.896l-2.08-2.08zM30.56 15.392h-2.976c-.352 0-.64.288-.64.64s.288.64.64.64h2.976c.352 0 .64-.288.64-.64s-.288-.64-.64-.64zM24.224 8.48c.16 0 .32-.064.448-.192l2.08-2.08c.256-.256.256-.672 0-.896-.256-.256-.672-.256-.896 0l-2.08 2.048c-.256.256-.256.672 0 .896.128.16.288.224.448.224z"/></symbol><symbol id="icon-suitcase" viewBox="0 0 32 32"><path d="M20.252 1.619h-8.504a2.879 2.879 0 0 0-2.876 2.876v3.128H5.37a5.008 5.008 0 0 0-5.002 5.002v12.756a5.008 5.008 0 0 0 5.002 5.002h21.26a5.008 5.008 0 0 0 5.002-5.002V12.625a5.008 5.008 0 0 0-5.002-5.002h-3.502V4.495a2.88 2.88 0 0 0-2.876-2.876zm-9.881 2.876c0-.759.618-1.376 1.376-1.376h8.504c.759 0 1.376.617 1.376 1.376v3.128H19.5V6.346c0-.882-.718-1.6-1.6-1.6h-3.801c-.882 0-1.6.718-1.6 1.6v1.277h-2.127V4.495h-.001zM18 7.622h-3.967l.065-1.377 3.902.1v1.276zm8.63 21.259H5.37a3.506 3.506 0 0 1-3.502-3.502v-7.754h9.13v1.376a2.879 2.879 0 0 0 2.876 2.876h4.252a2.879 2.879 0 0 0 2.876-2.876v-1.376h9.13v7.754a3.507 3.507 0 0 1-3.503 3.502zM12.498 17.625h7.004v1.376c0 .759-.617 1.376-1.376 1.376h-4.252a1.378 1.378 0 0 1-1.376-1.376v-1.376zm17.634-5.001v3.502H1.867v-3.502a3.506 3.506 0 0 1 3.502-3.502h21.26a3.507 3.507 0 0 1 3.503 3.502z"/></symbol></defs></svg>