<svg aria-hidden="true" style="position: absolute; width: 0; height: 0; overflow: hidden;" version="1.1" xmlns="http://www.w3.org/2000/svg" xmlns:xlink="http://www.w3.org/1999/xlink">
   <defs>
      <symbol id="icon-chair" viewBox="0 0 32 32">
         <path d="M23.719 27.387c-0.543 0.015-1.058 0.242-1.436 0.631s-0.589 0.911-0.589 1.454c-0 0.274 0.054 0.545 0.158 0.797s0.258 0.483 0.452 0.676c0.193 0.194 0.423 0.347 0.676 0.452s0.524 0.159 0.797 0.159c0.274 0 0.545-0.054 0.797-0.159s0.483-0.258 0.676-0.452c0.194-0.194 0.347-0.423 0.452-0.676s0.159-0.524 0.158-0.797c0-0.279-0.055-0.555-0.163-0.812s-0.267-0.489-0.467-0.684-0.436-0.347-0.696-0.448c-0.26-0.101-0.537-0.149-0.816-0.142zM23.749 28.501c0.13-0.004 0.259 0.019 0.381 0.066s0.232 0.118 0.325 0.209c0.093 0.091 0.167 0.199 0.218 0.319s0.077 0.249 0.077 0.379c0 0.128-0.025 0.255-0.073 0.373s-0.12 0.226-0.211 0.316-0.198 0.162-0.316 0.211c-0.118 0.049-0.245 0.074-0.373 0.074s-0.254-0.025-0.373-0.074c-0.118-0.049-0.225-0.121-0.316-0.211s-0.162-0.198-0.211-0.316c-0.049-0.118-0.074-0.245-0.073-0.373-0-0.253 0.098-0.496 0.275-0.678s0.416-0.287 0.669-0.295z"></path>
         <path d="M8.161 27.39c-0.542 0.016-1.056 0.242-1.434 0.631s-0.589 0.91-0.589 1.452c0.001 0.552 0.221 1.081 0.611 1.471s0.92 0.609 1.472 0.609 1.082-0.219 1.472-0.609c0.391-0.39 0.61-0.919 0.611-1.471 0-0.279-0.056-0.555-0.164-0.811s-0.267-0.489-0.467-0.683c-0.2-0.194-0.437-0.346-0.697-0.448s-0.537-0.149-0.816-0.141zM8.196 28.498c0.13-0.003 0.259 0.019 0.381 0.067s0.232 0.119 0.325 0.21c0.093 0.091 0.167 0.199 0.217 0.319s0.076 0.249 0.076 0.379c0 0.128-0.025 0.254-0.074 0.372s-0.12 0.225-0.211 0.316c-0.090 0.090-0.197 0.162-0.315 0.211s-0.244 0.074-0.372 0.074c-0.128 0-0.254-0.025-0.372-0.074s-0.225-0.12-0.315-0.211c-0.090-0.090-0.162-0.198-0.211-0.316s-0.074-0.244-0.074-0.372c-0.001-0.254 0.098-0.498 0.275-0.68s0.418-0.288 0.671-0.295z"></path>
         <path d="M25.119 16.002c-0.268-0.262-0.559-0.5-0.869-0.712l0.247-2.346 1.105 0.116-0.326 3.104c-0.051-0.056-0.103-0.11-0.157-0.163v0z"></path>
         <path d="M6.724 16.164l-0.326-3.104 1.105-0.116 0.247 2.346c-0.31 0.211-0.6 0.45-0.869 0.712-0.054 0.053-0.106 0.107-0.157 0.163v-0z"></path>
         <path d="M11.473 15.283c-0.705-0.013-1.405 0.114-2.060 0.374s-1.252 0.648-1.756 1.14c-0.394 0.386-0.665 0.881-0.777 1.421s-0.061 1.102 0.147 1.613c0.208 0.511 0.564 0.949 1.022 1.257s0.997 0.473 1.549 0.473h4.18v1.988c-1.765 0.471-3.335 1.492-4.481 2.915 0.357 0.128 0.688 0.318 0.979 0.562 0.704-0.833 1.58-1.502 2.569-1.961s2.066-0.697 3.156-0.697c1.090 0 2.167 0.238 3.156 0.697s1.865 1.128 2.569 1.961c0.29-0.244 0.622-0.434 0.979-0.562-1.147-1.423-2.716-2.443-4.481-2.915v-1.988h4.18c0.552-0 1.091-0.165 1.549-0.473s0.813-0.746 1.021-1.257c0.208-0.511 0.259-1.072 0.147-1.613s-0.383-1.035-0.777-1.421c-0.697-0.681-1.567-1.158-2.516-1.377s-1.94-0.175-2.866 0.13c-1.922 0.635-3.998 0.635-5.92 0-0.506-0.167-1.034-0.257-1.567-0.267v0zM11.453 16.394c0.421 0.008 0.839 0.080 1.239 0.212 2.148 0.709 4.467 0.709 6.615 0 0.732-0.242 1.517-0.278 2.268-0.104s1.44 0.551 1.992 1.090c0.237 0.232 0.399 0.528 0.466 0.853s0.036 0.661-0.089 0.968c-0.125 0.307-0.339 0.569-0.613 0.754s-0.599 0.283-0.93 0.283h-12.804c-0.331-0-0.654-0.099-0.929-0.284s-0.488-0.447-0.613-0.754-0.155-0.644-0.088-0.968c0.067-0.324 0.23-0.621 0.466-0.852 0.399-0.39 0.871-0.696 1.389-0.902s1.072-0.306 1.63-0.296v0zM14.889 21.561h2.222v1.766c-0.738-0.096-1.485-0.096-2.222 0v-1.766z"></path>
         <path d="M22.124 1.707c1.010 0.433 1.824 1.224 2.285 2.222s0.535 2.131 0.21 3.18l-2.264 7.299c-0.36-0.1-0.728-0.169-1.1-0.206l2.303-7.422c0.244-0.787 0.188-1.637-0.157-2.385s-0.956-1.342-1.714-1.667c-1.797-0.77-3.732-1.167-5.687-1.167s-3.89 0.397-5.687 1.167c-0.758 0.325-1.368 0.918-1.714 1.667s-0.402 1.598-0.157 2.385l2.303 7.422c-0.372 0.037-0.74 0.105-1.099 0.206l-2.264-7.299c-0.326-1.050-0.251-2.183 0.21-3.18s1.275-1.789 2.285-2.222c1.935-0.829 4.019-1.257 6.124-1.257s4.189 0.428 6.124 1.257z"></path>
      </symbol>
      <symbol id="icon-clock" viewBox="0 0 32 32">
         <path d="M16 10.4c-0.442 0-0.8 0.358-0.8 0.8v8c0 0.442 0.358 0.8 0.8 0.8s0.8-0.358 0.8-0.8v-8c0-0.442-0.358-0.8-0.8-0.8z"></path>
         <path d="M25.585 10.746l2.181-2.179c0.312-0.312 0.312-0.819 0-1.131s-0.819-0.312-1.131 0l-2.181 2.179c-2.070-1.827-4.728-2.99-7.654-3.174v-4.84h4c0.442 0 0.8-0.358 0.8-0.8s-0.358-0.8-0.8-0.8h-9.6c-0.442 0-0.8 0.358-0.8 0.8s0.358 0.8 0.8 0.8h4v4.84c-6.685 0.416-12 5.971-12 12.76 0 7.058 5.742 12.8 12.8 12.8s12.8-5.742 12.8-12.8c0-3.242-1.221-6.197-3.214-8.454zM16 30.4c-6.176 0-11.2-5.026-11.2-11.2s5.024-11.2 11.2-11.2c6.176 0 11.2 5.026 11.2 11.2s-5.024 11.2-11.2 11.2z"></path>
      </symbol>
      <symbol id="icon-info" viewBox="0 0 32 32">
         <path d="M10.263 32v-2.487l3.217-0.553v-15.257l-3.217-0.553v-2.507h7.105v18.316l3.217 0.553v2.487h-10.322zM13.48 5.178v-3.967h3.888v3.967h-3.888z"></path>
      </symbol>
      <symbol id="icon-letter" viewBox="0 0 32 32">
         <path d="M3.151 1.031c-1.444 0-2.634 1.191-2.634 2.634v25.702c0 1.444 1.191 2.631 2.634 2.631h25.699c1.444 0 2.634-1.187 2.634-2.631v-25.702c0-1.444-1.191-2.634-2.634-2.634h-25.699zM3.151 2.755h25.699c0.52 0 0.914 0.39 0.914 0.911v25.702c0 0.52-0.394 0.911-0.914 0.911h-25.699c-0.52 0-0.914-0.39-0.914-0.911v-25.702c0-0.52 0.394-0.911 0.914-0.911z"></path>
         <path d="M15.14 6.192c-0.228 0-0.447 0.091-0.608 0.252s-0.252 0.38-0.252 0.608v5.161c0 0.228 0.091 0.447 0.252 0.608s0.38 0.252 0.608 0.252h10.323c0.228 0 0.447-0.091 0.608-0.252s0.252-0.38 0.252-0.608v-5.161c0-0.228-0.091-0.447-0.252-0.608s-0.38-0.252-0.608-0.252h-10.323zM16 7.912h8.602v3.441h-8.602v-3.441z"></path>
         <path d="M15.14 14.794c-0.228 0-0.447 0.091-0.608 0.252s-0.252 0.38-0.252 0.608v5.161c0 0.228 0.091 0.447 0.252 0.608s0.38 0.252 0.608 0.252h10.323c0.228-0 0.447-0.091 0.608-0.252s0.252-0.38 0.252-0.608v-5.161c0-0.228-0.091-0.447-0.252-0.608s-0.38-0.252-0.608-0.252h-10.323zM16 16.515h8.602v3.441h-8.602v-3.441z"></path>
         <path d="M5.677 7.912v1.72h5.161v-1.72h-5.161z"></path>
         <path d="M5.677 16.515v1.72h5.161v-1.72h-5.161z"></path>
         <path d="M5.677 25.117v1.72h20.47v-1.72h-20.47z"></path>
      </symbol>
      <symbol id="icon-little-phone" viewBox="0 0 32 32">
         <path d="M23.312 31.987c-2.622 0-5.086-1.021-6.94-2.875l-12.144-12.144c-1.854-1.853-2.875-4.318-2.875-6.94s1.021-5.086 2.875-6.94c1.168-1.167 2.31-1.735 3.494-1.735 2.078 0 3.723 1.73 5.629 3.734 0.422 0.444 0.861 0.905 1.324 1.369 0.079 0.079 0.772 0.81 0.772 2.144s-1.12 2.492-1.249 2.62c-1.165 1.165-1.419 2.971-0.627 4.408 0.449 0.556 3.795 3.841 4.402 4.273 0.475 0.214 1.002 0.327 1.527 0.327 0.99 0 1.921-0.385 2.621-1.085 0.127-0.127 1.287-1.249 2.62-1.249s2.064 0.693 2.144 0.772c0.463 0.463 0.925 0.902 1.368 1.324 1.989 1.893 3.708 3.527 3.734 5.585 0.015 1.199-0.552 2.357-1.734 3.539-1.854 1.854-4.318 2.874-6.94 2.874zM7.722 3.375c-0.62 0-1.296 0.374-2.064 1.143-1.472 1.472-2.282 3.429-2.282 5.511s0.81 4.039 2.282 5.511l12.144 12.145c1.472 1.472 3.429 2.282 5.511 2.282s4.039-0.81 5.511-2.282c0.776-0.776 1.15-1.459 1.142-2.084-0.015-1.207-1.447-2.568-3.105-4.146-0.455-0.433-0.93-0.884-1.405-1.36 0.001 0.001 0.001 0.001 0.001 0.001-0.004 0-0.245-0.182-0.715-0.182-0.356 0-0.923 0.393-1.193 0.66-1.079 1.079-2.517 1.675-4.047 1.675-0.835 0-1.673-0.186-2.427-0.538-0.757-0.354-4.968-4.574-5.235-5.041-1.271-2.232-0.888-5.061 0.93-6.879 0.263-0.267 0.657-0.834 0.657-1.191 0-0.491-0.199-0.732-0.207-0.742-0.449-0.447-0.9-0.922-1.333-1.376-1.585-1.665-2.954-3.104-4.165-3.104z"></path>
      </symbol>
      <symbol id="icon-phone" viewBox="0 0 32 32">
         <path d="M29.269 21.717l-0.043-0.043-3.2-2.005c-0.896-0.64-1.877-0.811-2.901-0.512-1.195 0.341-2.219 1.408-2.731 2.773-0.299 0.853-0.811 1.152-1.707 1.024-3.285-0.427-8.875-6.315-9.216-9.685-0.085-0.939 0.213-1.451 1.067-1.707 1.195-0.469 2.048-1.323 2.389-2.389 0.299-1.067 0.085-2.176-0.64-3.2l-2.005-3.2-0.043-0.043c-0.981-1.323-2.005-2.005-3.243-2.091-1.536-0.128-3.2 0.725-5.035 2.56-4.395 4.395-0.64 14.805 5.675 21.12 4.395 4.395 10.795 7.595 15.787 7.595 2.048 0 3.84-0.555 5.163-1.749 0.085-0.043 0.171-0.085 0.213-0.171 1.835-1.835 2.688-3.499 2.56-5.035-0.085-1.237-0.768-2.304-2.091-3.243zM27.691 28.629c-0.043 0.043-0.128 0.085-0.171 0.128-3.371 3.371-12.459 0.597-18.731-5.675-6.229-6.229-8.96-15.317-5.589-18.688 1.451-1.451 2.688-2.176 3.712-2.091 0.683 0.043 1.323 0.512 1.963 1.365l2.005 3.2 0.043 0.043c0.427 0.555 0.555 1.195 0.384 1.749s-0.64 1.024-1.365 1.28c-1.536 0.512-2.347 1.792-2.176 3.499 0.427 4.181 6.613 10.667 10.709 11.221 0.171 0.043 0.384 0.043 0.555 0.043 1.408 0 2.475-0.768 2.987-2.133 0.341-0.853 0.939-1.536 1.621-1.749 0.469-0.128 0.939-0.043 1.408 0.299l0.043 0.043 3.2 2.005c0.896 0.64 1.323 1.28 1.365 1.963 0.085 0.896-0.597 2.091-1.963 3.499z"></path>
         <path d="M16.469 0.128c-0.469 0-0.853 0.384-0.853 0.853s0.384 0.853 0.853 0.853c7.595 0 13.781 6.187 13.781 13.781 0 0.469 0.384 0.853 0.853 0.853s0.853-0.384 0.853-0.853c0-8.576-6.955-15.488-15.488-15.488z"></path>
         <path d="M16.469 5.291c5.675 0 10.325 4.608 10.325 10.325 0 0.469 0.384 0.853 0.853 0.853s0.853-0.384 0.853-0.853c0-6.613-5.376-12.032-12.032-12.032-0.469 0-0.853 0.384-0.853 0.853s0.384 0.853 0.853 0.853z"></path>
         <path d="M16.469 8.832c3.755 0 6.784 3.029 6.784 6.741 0 0.469 0.384 0.853 0.853 0.853s0.853-0.384 0.853-0.853c0-4.693-3.797-8.491-8.491-8.491-0.469 0-0.853 0.384-0.853 0.853 0 0.512 0.384 0.896 0.853 0.896z"></path>
      </symbol>
      <symbol id="icon-question" viewBox="0 0 32 32">
         <path d="M13.563 23.458c0-1.014 0.035-1.847 0.104-2.5s0.201-1.215 0.396-1.688c0.208-0.472 0.521-0.944 0.938-1.417s0.979-1.028 1.688-1.667c0.986-0.889 1.75-1.715 2.292-2.479 0.556-0.764 0.944-1.507 1.167-2.229 0.236-0.722 0.354-1.458 0.354-2.208 0-1.472-0.396-2.604-1.188-3.396-0.778-0.792-1.896-1.188-3.354-1.188-1.264 0-2.34 0.347-3.229 1.042-0.875 0.681-1.313 1.688-1.313 3.021h-3.917l-0.063-0.125c-0.028-1.486 0.319-2.785 1.042-3.896 0.736-1.111 1.75-1.972 3.042-2.583s2.771-0.917 4.438-0.917c2.736 0 4.861 0.701 6.375 2.104 1.514 1.389 2.271 3.333 2.271 5.833 0 1.194-0.201 2.285-0.604 3.271-0.389 0.972-0.979 1.951-1.771 2.938-0.792 0.972-1.785 2.063-2.979 3.271-0.486 0.5-0.84 0.958-1.063 1.375-0.222 0.403-0.368 0.868-0.438 1.396-0.056 0.514-0.083 1.195-0.083 2.042h-4.104zM13.521 32v-4.333h4.271v4.333h-4.271z"></path>
      </symbol>
      <symbol id="icon-star" viewBox="0 0 32 32">
         <path d="M20.448 17.856l3.264-2.816c0.352-0.32 0.48-0.8 0.352-1.248-0.16-0.448-0.544-0.768-1.024-0.8l-4.256-0.352-1.664-3.968c-0.192-0.448-0.608-0.704-1.088-0.704s-0.896 0.288-1.088 0.704l-1.664 3.968-4.256 0.352c-0.48 0.032-0.864 0.352-1.024 0.8s0 0.928 0.352 1.248l3.264 2.784-0.992 4.16c-0.096 0.448 0.064 0.928 0.448 1.216s0.896 0.288 1.28 0.064l3.648-2.24 3.648 2.24c0.192 0.128 0.384 0.16 0.608 0.16 0.256 0 0.48-0.064 0.672-0.224 0.384-0.288 0.544-0.768 0.448-1.216l-0.928-4.128zM19.552 16.928c-0.32 0.288-0.48 0.736-0.384 1.152l0.928 3.968-3.456-2.144c-0.192-0.128-0.384-0.16-0.608-0.16s-0.416 0.064-0.608 0.16l-3.488 2.112 0.928-3.968c0.096-0.416-0.032-0.864-0.384-1.152l-3.104-2.656 4.064-0.32c0.448-0.032 0.8-0.32 0.992-0.704l1.568-3.776 1.6 3.776c0.16 0.416 0.544 0.672 0.992 0.704l4.064 0.32-3.104 2.688z"></path>
         <path d="M16.032 5.056c0.352 0 0.64-0.288 0.64-0.64v-2.976c0-0.352-0.288-0.64-0.64-0.64s-0.64 0.288-0.64 0.64v2.976c0 0.352 0.288 0.64 0.64 0.64z"></path>
         <path d="M7.36 8.224c0.128 0.128 0.288 0.192 0.448 0.192s0.32-0.064 0.448-0.192c0.256-0.256 0.256-0.672 0-0.896l-2.080-2.080c-0.256-0.256-0.672-0.256-0.896 0-0.256 0.256-0.256 0.672 0 0.896l2.080 2.080z"></path>
         <path d="M4.416 15.328h-2.976c-0.352 0-0.64 0.288-0.64 0.64s0.288 0.64 0.64 0.64h2.976c0.352 0 0.64-0.288 0.64-0.64s-0.288-0.64-0.64-0.64z"></path>
         <path d="M7.328 23.712l-2.080 2.080c-0.256 0.256-0.256 0.672 0 0.896 0.128 0.128 0.288 0.192 0.448 0.192s0.32-0.064 0.448-0.192l2.080-2.080c0.256-0.256 0.256-0.672 0-0.896-0.256-0.256-0.672-0.256-0.896 0z"></path>
         <path d="M15.968 26.944c-0.352 0-0.64 0.288-0.64 0.64v2.976c0 0.352 0.288 0.64 0.64 0.64s0.64-0.288 0.64-0.64v-2.976c0-0.352-0.288-0.64-0.64-0.64z"></path>
         <path d="M24.64 23.776c-0.256-0.256-0.672-0.256-0.896 0-0.256 0.256-0.256 0.672 0 0.896l2.080 2.080c0.128 0.128 0.288 0.192 0.448 0.192s0.32-0.064 0.448-0.192c0.256-0.256 0.256-0.672 0-0.896l-2.080-2.080z"></path>
         <path d="M30.56 15.392h-2.976c-0.352 0-0.64 0.288-0.64 0.64s0.288 0.64 0.64 0.64h2.976c0.352 0 0.64-0.288 0.64-0.64s-0.288-0.64-0.64-0.64z"></path>
         <path d="M24.224 8.48c0.16 0 0.32-0.064 0.448-0.192l2.080-2.080c0.256-0.256 0.256-0.672 0-0.896-0.256-0.256-0.672-0.256-0.896 0l-2.080 2.048c-0.256 0.256-0.256 0.672 0 0.896 0.128 0.16 0.288 0.224 0.448 0.224z"></path>
      </symbol>
      <symbol id="icon-suitcase" viewBox="0 0 32 32">
         <path d="M20.252 1.619h-8.504c-1.586 0-2.876 1.29-2.876 2.876v3.128h-3.502c-2.758 0-5.002 2.244-5.002 5.002v12.756c0 2.758 2.244 5.002 5.002 5.002h21.26c2.758 0 5.002-2.244 5.002-5.002v-12.756c0-2.758-2.244-5.002-5.002-5.002h-3.502v-3.128c-0-1.586-1.291-2.876-2.876-2.876zM10.371 4.495c0-0.759 0.618-1.376 1.376-1.376h8.504c0.759 0 1.376 0.617 1.376 1.376v3.128h-2.127v-1.277c0-0.882-0.718-1.6-1.6-1.6h-3.801c-0.882 0-1.6 0.718-1.6 1.6v1.277h-2.127v-3.128h-0.001zM18 7.622h-3.967l0.065-1.377 3.902 0.1v1.276zM26.63 28.881h-21.26c-1.931 0-3.502-1.571-3.502-3.502v-7.754h9.13v1.376c0 1.586 1.29 2.876 2.876 2.876h4.252c1.586 0 2.876-1.29 2.876-2.876v-1.376h9.13v7.754c0 1.93-1.572 3.502-3.503 3.502zM12.498 17.625h7.004v1.376c0 0.759-0.617 1.376-1.376 1.376h-4.252c-0.759 0-1.376-0.618-1.376-1.376v-1.376h0zM30.132 12.624v3.502h-28.265v-3.502c0-1.931 1.571-3.502 3.502-3.502h21.26c1.931-0 3.503 1.571 3.503 3.502z"></path>
      </symbol>
   </defs>
</svg>